PathFileType	4	(X/Y/Z)	C:/Users/beibeiliu/ov580/test_trc/User3\sequence.22_training_dense_right.trc
DataRate	CameraRate	NumFrames	NumMarkers	Units	OrigDataRate	OrigDataStartFrame	OrigNumFrames
120	120	24	19	mm	120	132	262
Frame#	Time	ThumbCMC			ThumbMCP			ThumbIP			ThumbTip			IndexMCP			IndexPIP			IndexTip			MiddleMCP			MiddlePIP			MiddleTip			RingMCP			RingPIP			RingTip			PinkyMCP			PinkyPIP			PinkyTip			BackHand1			BackHand2			BackHand3	
		X0	Y0	Z0	X1	Y1	Z1	X2	Y2	Z2	X3	Y3	Z3	X4	Y4	Z4	X5	Y5	Z5	X6	Y6	Z6	X7	Y7	Z7	X8	Y8	Z8	X9	Y9	Z9	X10	Y10	Z10	X11	Y11	Z11	X12	Y12	Z12	X13	Y13	Z13	X14	Y14	Z14	X15	Y15	Z15	X16	Y16	Z16	X17	Y17	Z17	X18	Y18	Z18	
131	1.09167	101.467	-17.1437	24.0393	70.5164	-21.8448	26.9115	37.903	-28.3585	20.8591	20.7035	-43.483	17.4082	74.7435	-42.8275	-39.2375	49.9223	-55.1572	-53.4266	22.4314	-65.5346	-47.374	81.8948	-67.0522	-41.9224	48.3197	-80.1207	-51.6013	20.7388	-92.4755	-32.9485	89.7595	-82.609	-32.1511	62.7695	-95.4242	-41.6108	35.6273	-104.531	-24.5636	98.8681	-96.5655	-15.7311	73.9863	-109.612	-18.3197	52.2133	-114.965	-6.40864	130.553	-60.877	-5.82863	151.13	-55.7809	9.91787	126.969	-30.506	-3.04319	
132	1.1	107.407	-7.47868	24.2075	73.3882	-11.5581	25.2775	40.9723	-15.279	19.5321	22.9949	-30.2546	18.3183	75.4887	-44.7527	-37.2514	47.8676	-52.6662	-49.6702	14.5418	-55.0749	-43.9267	76.7965	-61.4719	-41.1852	42.6984	-73.2105	-48.0542	14.5097	-77.1681	-31.4958	81.3156	-80.741	-28.5641	55.7478	-89.0938	-35.8551	25.5986	-90.0492	-21.0843	91.6513	-94.5168	-7.0631	62.6956	-103.705	-10.8689	42.1502	-101.404	0.441055	129.486	-65.8351	-5.11438	150.925	-60.991	15.6889	133.185	-29.6603	-2.64149	
133	1.10833	112.661	-4.04881	20.6571	75.9931	-9.55941	19.86	49.4849	-9.09975	17.9319	25.869	-18.5655	16.4236	74.2783	-38.1478	-41.4121	45.569	-43.3847	-49.8324	16.0231	-48.5909	-42.3728	73.25	-63.3311	-39.0112	44.2428	-62.8225	-47.2614	11.0442	-65.0665	-30.53	78.6523	-78.6811	-24.3001	50.91	-86.411	-30.1445	22.9712	-84.7884	-17.1804	83.8189	-94.1166	-3.53271	55.7756	-100.005	-3.99528	37.1419	-91.9454	3.55573	124.6	-65.9589	-2.58386	146.941	-59.284	12.5622	133.101	-30.478	-4.28749	
134	1.11667	119.835	-5.50745	17.6927	85.1594	-1.90911	18.378	52.5865	5.38152	12.5118	28.687	-4.586	10.5051	78.166	-37.0269	-40.343	50.0117	-34.4725	-52.1357	18.3575	-33.3435	-44.9249	73.7643	-55.4902	-40.2138	41.4086	-57.0734	-46.1881	7.2123	-50.826	-27.6879	75.8036	-71.583	-24.1277	48.0211	-76.3576	-28.6632	16.7905	-66.0443	-15.7292	81.7536	-84.8163	0.20741	51.2294	-87.0022	-2.30067	31.2883	-78.1337	7.30757	126.401	-64.0297	-1.14538	148.412	-60.5848	19.3754	138.225	-35.5498	-3.27906	
135	1.125	125.232	-2.25098	12.1581	92.1871	8.83557	12.5358	61.7075	15.5285	6.12957	38.7871	7.96616	5.20261	82.6367	-29.9947	-42.5095	52.8993	-31.9286	-52.2585	24.4861	-25.3912	-47.9343	71.5753	-53.8947	-39.1185	41.8452	-49.9592	-46.1251	12.3636	-37.4673	-33.5787	70.4617	-67.2759	-23.2564	41.3556	-66.4593	-26.0955	18.4779	-56.3567	-14.4041	75.0614	-77.6053	3.2284	45.0989	-77.9325	3.25552	26.2559	-63.8961	12.7269	119.775	-65.3857	0.186282	147.565	-63.3752	18.9553	136.296	-36.6017	-5.95332	
136	1.13333	134.498	-1.20831	10.653	100.988	9.51218	7.52064	74.3886	20.317	1.35593	49.5871	20.7777	-1.728	86.3495	-31.8943	-41.4897	59.9249	-23.9756	-58.3772	29.1726	-14.4257	-52.5056	73.1133	-49.9772	-37.7979	46.3677	-42.4023	-48.481	16.0038	-26.4215	-35.9389	71.1328	-62.9418	-18.2693	42.6986	-58.6802	-23.9353	16.8492	-41.0051	-14.0533	71.1947	-69.9171	4.61265	42.6868	-64.2547	6.39807	26.2194	-45.0728	12.085	118.323	-65.6226	1.00559	143.232	-66.1508	23.8947	139.584	-40.5858	-6.7728	
137	1.14167	141.18	-0.861591	5.28313	110.001	15.4486	-0.441178	85.0792	31.0202	-10.2517	62.799	32.0528	-8.67317	88.4126	-30.2471	-48.4864	64.4883	-21.9136	-63.2988	38.9133	-7.41077	-63.4313	74.8737	-46.5523	-39.6998	44.0818	-35.5669	-52.73	20.0163	-14.488	-42.7027	68.0568	-57.2917	-21.5591	39.4034	-46.9356	-27.9895	19.7096	-24.7426	-18.4804	65.6883	-60.1635	2.9856	42.0238	-51.9736	4.37663	26.8905	-29.6155	15.4274	116.586	-66.3131	4.17867	142.134	-64.7674	18.4729	141.386	-39.8794	-9.68696	
138	1.15	147.327	-1.92302	-0.902179	121.704	18.865	-7.96744	97.8113	35.9888	-18.7838	72.9286	42.9685	-21.2267	93.6525	-31.2725	-52.3961	69.3565	-22.2692	-71.3965	46.0573	-7.80659	-71.2131	78.0827	-45.8264	-45.2355	48.4632	-33.5601	-57.2463	25.6382	-14.3378	-49.1009	72.6784	-51.3155	-23.1492	41.5678	-42.4049	-30.451	25.2038	-16.4936	-25.905	66.9628	-54.0186	-0.106002	44.1297	-42.1364	-0.963246	30.7502	-17.881	7.30688	117.029	-62.7684	-1.83272	139.106	-66.6112	19.3021	145.043	-42.2359	-8.61428	
139	1.15833	152.958	-6.16864	-3.43272	128.126	14.6017	-16.2809	108.782	34.8284	-29.795	86.3861	39.6362	-32.6598	105.196	-32.2236	-60.6649	80.0696	-26.1739	-80.1712	59.3122	-12.0591	-84.1882	87.0206	-47.5508	-51.0674	56.8929	-37.3533	-65.7521	33.6998	-14.6704	-60.5373	79.1784	-48.6675	-31.0511	51.1335	-41.5908	-39.6822	31.7877	-13.0728	-34.736	69.8295	-51.828	-5.00742	50.3444	-39.8061	-10.5958	38.6961	-11.9087	-4.90643	120.422	-60.9242	-4.08808	142.262	-65.9335	18.1696	148.791	-45.2814	-11.05	
140	1.16667	160.289	-8.7652	-9.85178	142.99	15.2393	-26.184	124.337	29.5184	-40.6189	100.298	34.6053	-51.0144	120.583	-37.7889	-64.112	94.7962	-37.272	-87.6709	75.4983	-20.8372	-99.964	102.063	-52.1884	-56.3943	73.6854	-45.1895	-78.5452	47.2972	-22.4093	-77.4896	86.4674	-55.5571	-38.5881	63.3154	-44.5838	-54.4674	42.85	-17.1984	-49.9796	82.3884	-53.1905	-13.5184	60.5039	-43.0454	-25.0682	49.445	-11.3858	-23.7875	126.056	-62.8425	-1.55008	144.68	-63.856	16.8714	158.674	-45.4637	-14.5252	
141	1.175	171.562	-7.52818	-10.0721	149.483	7.8806	-33.3507	135.936	22.0642	-55.9147	113.574	23.9438	-64.8027	137.112	-46.7991	-72.0282	117.289	-49.9375	-93.4273	96.1875	-36.2908	-108.487	116.192	-61.024	-60.7123	95.8746	-56.4718	-88.7302	69.2385	-34.2833	-95.2373	103.531	-60.2785	-50.7691	77.9185	-53.614	-65.988	62.6472	-29.9028	-70.0906	91.8425	-60.1613	-21.9862	71.0776	-48.5422	-40.0998	59.7532	-24.6774	-39.7749	137.178	-64.3572	-9.18693	150.824	-65.9248	20.106	164.531	-49.7704	-11.3422	
142	1.18333	176.675	-10.9197	-14.1525	162.622	3.83333	-38.1013	148.675	10.6381	-64.5342	130.004	11.3141	-76.9776	156.065	-57.256	-69.5416	144.454	-60.9032	-97.5396	125.106	-49.6738	-117.014	136.742	-71.8668	-66.2035	118.944	-72.1542	-91.306	92.0696	-45.2008	-106.544	120.65	-72.6415	-55.7431	104.681	-68.7717	-75.9666	82.306	-40.3212	-83.5726	107.052	-69.213	-31.8527	91.5912	-64.5677	-52.1682	73.3546	-39.9323	-58.9683	148.212	-66.2404	-5.0956	154.457	-67.6175	19.0898	178.15	-51.3007	-10.2242	
143	1.19167	182.383	-15.5039	-12.2838	171.818	-3.44901	-38.9637	162.448	0.67998	-70.3081	146.47	-4.34388	-89.5845	178.935	-63.4701	-65.4258	169.658	-71.0144	-99.0305	149.757	-60.7122	-117.154	159.858	-80.1803	-63.4942	145.998	-84.0452	-93.9181	122.418	-58.6531	-114.297	143.682	-80.5695	-52.5106	123.773	-80.7053	-82.1157	109.087	-57.9105	-93.4791	124.764	-78.5048	-33.4176	110.931	-79.771	-57.4297	100.079	-58.5022	-75.6251	160.647	-73.1081	-7.94967	163.676	-62.8169	24.9689	185.423	-51.3147	-4.91334	
144	1.2	189.937	-14.9133	-6.70251	181.53	-8.65769	-41.5784	175.681	-10.1255	-70.2906	164.56	-14.1164	-92.079	200.028	-72.5646	-62.4321	192.375	-81.1498	-93.464	180.84	-67.0604	-115.274	184.133	-85.0849	-60.1027	173.485	-91.7004	-93.5918	153.397	-71.5364	-115.315	164.905	-90.8456	-54.0085	153.511	-94.0196	-79.3708	134.104	-70.8983	-98.7268	141.71	-89.6838	-36.1954	133.824	-91.9556	-65.1107	124.224	-78.1685	-80.9116	170.285	-75.5345	-5.56154	170.35	-63.8499	27.5602	196.958	-55.1331	0.508587	
145	1.20833	196.653	-17.8494	-8.18513	191.123	-16.9728	-43.8813	189.194	-15.4583	-72.7736	180.119	-25.5915	-94.5562	215.823	-78.2399	-55.8924	216.794	-86.5523	-85.4018	202.605	-72.4818	-110.858	203.56	-92.4682	-53.471	200.732	-100.286	-87.6984	179.059	-82.3787	-112.812	185.842	-96.8929	-49.5507	178.49	-102.198	-80.4484	159.621	-83.1759	-99.1533	160.876	-95.4944	-36.0361	155.581	-103.129	-61.6954	141.652	-91.914	-84.3493	178.861	-79.5033	1.55224	175.566	-66.1501	27.3085	203.428	-56.3324	6.80661	
146	1.21667	205.334	-21.1986	-10.5895	200.389	-19.6719	-41.3603	202.039	-22.9863	-73.8363	192.976	-32.2015	-92.6628	235.69	-79.4529	-51.6524	237.486	-86.7193	-78.9927	217.744	-75.7282	-106.05	220.857	-95.018	-49.3207	220.888	-103.987	-83.2952	199.044	-85.3235	-110.958	200.669	-100.237	-45.0102	198.186	-107.075	-76.8193	182.769	-91.3354	-98.0485	176.875	-104.081	-37.574	174.64	-109.22	-63.7524	167.117	-96.001	-86.641	195.224	-81.9832	1.55497	181.56	-68.1974	25.836	211.095	-53.535	10.2547	
147	1.225	211.998	-19.3477	-9.48956	208.439	-19.8192	-41.6187	211.413	-23.6647	-71.364	205.422	-36.7608	-91.5737	245.167	-77.6407	-44.7719	250.76	-87.0263	-75.8064	234.844	-74.2073	-102.138	235.691	-98.2857	-45.969	239.894	-103.257	-81.09	220.691	-84.4909	-108.213	217.87	-100.934	-42.7466	217.14	-109.987	-71.7897	201.788	-94.8255	-96.5534	193.618	-102.253	-33.8768	192.16	-113.151	-59.3685	184.245	-105.152	-84.7457	203.722	-81.1295	5.38492	191.45	-68.8085	25.3325	217.454	-53.3003	13.1641	
148	1.23333	214.864	-17.725	-7.01666	215.965	-16.2413	-42.8293	221.842	-19.2098	-73.1329	216.85	-31.6191	-92.9648	261.476	-70.5107	-41.943	265.56	-78.5149	-74.2114	252.341	-65.7786	-99.7689	252.821	-89.7629	-42.9888	257.979	-97.6602	-73.0258	236.22	-82.0874	-104.077	235.44	-97.6493	-41.3222	235.392	-107.214	-69.1767	221.573	-91.2891	-94.1715	210.488	-105.426	-34.1423	209.652	-114.11	-60.8516	203.41	-101.148	-85.4127	213.266	-80.7319	4.43519	198.289	-67.6236	28.0529	225.104	-51.052	16.4067	
149	1.24167	216.693	-9.4489	-6.1	217.166	-9.67607	-37.7223	225.541	-8.954	-71.7846	222.959	-26.2775	-90.7316	269.951	-58.135	-37.6785	280.313	-63.4282	-66.7374	267.582	-56.7885	-93.9467	265.392	-76.0864	-39.0668	274.227	-81.3907	-71.5976	251.937	-71.196	-102.655	249.986	-86.8559	-39.3413	254.237	-94.5875	-66.7926	236.098	-82.3011	-95.8102	226.853	-99.1968	-35.0389	230.22	-107.291	-60.0839	222.45	-96.5144	-85.4744	224.384	-74.1423	7.03234	205.157	-67.4067	28.0542	233.156	-41.3184	15.5541	
150	1.25	215.138	-4.75797	-3.72745	218.785	-3.04832	-39.6147	223.804	-0.647644	-67.6056	227.469	-12.5334	-92.2383	278.725	-36.5341	-35.4367	292.632	-37.2448	-64.4661	274.309	-31.1508	-94.8337	277.092	-61.4156	-39.7738	284.91	-63.0906	-73.0657	261.678	-54.5064	-101.796	261.303	-74.4719	-37.5274	269.493	-78.7833	-70.2145	254.35	-69.6667	-92.9314	241.159	-86.8306	-33.2814	248.548	-95.7999	-56.3719	239.773	-88.0926	-84.9989	236.319	-66.4516	6.41941	215.459	-62.0827	26.6662	236.5	-34.5455	16.1666	
151	1.25833	212.74	2.10926	-3.84703	212.299	7.90413	-36.9939	221.75	8.05602	-66.3312	224.647	-1.68256	-88.7536	279.319	-13.4515	-33.3643	292.742	-13.9791	-62.1461	275.312	-10.5677	-92.7807	281.462	-40.0049	-36.9169	292.901	-36.9608	-69.5505	270.777	-30.2516	-98.9064	274.327	-59.198	-40.0362	280.224	-58.7818	-69.5951	263.279	-53.453	-91.6363	253.558	-76.9485	-33.17	264.107	-76.9258	-59.6195	252.176	-69.7688	-85.334	242.463	-54.8996	6.73265	218.226	-59.7385	28.5446	236.231	-24.0039	17.373	
152	1.26667	204.732	3.70426	-1.1881	203.355	14.0495	-33.2269	210.914	22.9209	-66.6877	217.888	13.9044	-87.523	274.31	5.84128	-31.9318	287.055	15.0745	-61.2214	271.324	14.1326	-88.7641	286.085	-14.7922	-39.2481	291.205	-6.80351	-69.6192	268.758	-11.3773	-98.6321	276.384	-35.631	-37.0587	285.864	-30.4404	-64.0876	268.537	-28.5732	-90.856	262.621	-54.514	-34.1375	273.126	-54.9997	-62.5839	263.419	-48.8571	-83.3589	248.156	-46.5777	7.66802	223.099	-47.7081	27.3454	231.761	-12.4826	19.2889	
153	1.275	194.112	7.81803	2.85363	193.445	19.868	-30.832	199.136	30.7632	-62.1709	205.271	25.1653	-85.2072	264.001	31.5485	-28.8877	275.163	40.6754	-57.2457	261.794	35.7351	-84.7458	275.681	10.5056	-32.155	284.341	17.5363	-68.2181	259.931	13.6187	-96.9055	277.835	-9.29777	-35.8849	283.719	-5.87626	-64.8687	266.431	-9.46551	-90.4613	268.631	-34.1318	-33.2304	276.672	-29.5932	-59.9154	263.845	-23.5661	-83.3067	250.625	-29.7299	7.52486	232.279	-39.7023	27.0002	227	-4.84068	20.9266	
154	1.28333	186.563	6.76312	4.18161	183.346	21.3561	-27.634	185.615	32.5458	-56.3461	195.276	32.5036	-80.8226	251.742	46.201	-25.7629	258.117	61.0725	-53.3759	246.136	51.8457	-80.2138	267.354	29.8325	-30.1207	273.696	39.9022	-60.4117	250.162	30.1511	-92.351	270.668	8.26909	-30.6605	279.447	13.9812	-59.3772	260.88	12.5542	-86.1638	268.221	-16.9498	-31.1439	276.061	-9.21127	-54.8056	265.936	-7.44234	-80.4591	245.151	-15.2398	9.69977	232.166	-33.8109	28.1635	220.484	5.6557	23.5001	
